<svg id="圖層_1" data-name="圖層 1" xmlns="http://www.w3.org/2000/svg" viewBox="0 0 928.33 497.49"><defs><style>.cls-1{fill:#ff9700;}</style></defs><path class="cls-1" d="M139.84,224.13c0-7.6-1-14.92-5.73-21.27a2.48,2.48,0,0,0-1.68-.46,2,2,0,0,1,0-.24l-.33-1.58c-3.35-2.24-4.38-6.86-8.5-8.31h-.14c.27-1.12-.58-1.47-1.53-1.75l-5.7-3.71c-4-3.69-9.16-4.61-14.09-5.3-10.38-1.46-20.91,0-31.32-.71-8.77-.59-16.29,2.21-23.48,6.64l-3.66,3.06a15.82,15.82,0,0,0-10.44,11.73v0l-.05.08,0,0a.06.06,0,0,1,0,0h0a2.36,2.36,0,0,1,0,.28,2.26,2.26,0,0,0-1.7.3c-2,3.2-4.9,6-4.72,10.17.35,8.32-.61,16.6-.54,24.92.34,44.56-.42,89.13.38,133.7.13,7.6,1.15,14.45,5.6,20.64l1.45,1.93c1.25,1.87,2.5,3.73,4.68,4.66.14,1.19,1.08,1.73,1.9,2.36a1.23,1.23,0,0,0,1.83.15s0,0,0,0h0l0,0,0,0,1,.92h.09c-.47.88.34,1.38.92,1.94a4.68,4.68,0,0,0,3.13,1.89c1.7,1.33,3.33,2.75,5.54,3.25,11.28,2.57,22.25,6.47,34.21,5.46,11.69-1,23-2.66,33-9.33a1.12,1.12,0,0,0,.35-1.13l.06.08,1.69-.57.87-.74,1-1.42a1.86,1.86,0,0,0,.34.07,8.68,8.68,0,0,0,4.82-4.89l.62-.77c.94-.26,1-.84.64-1.63l0-.08c1.67.18,2.11-1.22,2.77-2.33,5-6.6,6.65-14.12,6.64-22.31Q139.76,297,139.84,224.13ZM100.45,379.34c0-.06,0-.12,0-.19l.12.12Zm-35.15,0h0v0ZM60.57,204.25l-.19.13.09-.14ZM58.43,379.77a5.62,5.62,0,0,0-.1.7L58,378.72A2.19,2.19,0,0,1,58.43,379.77Zm8.49-15.84c.61-50.73-1-101.47.9-152.2a8.18,8.18,0,0,0-.27-1.57,3.23,3.23,0,0,0,.74-1c4.48-8.15,10.31-10.79,19.36-8.78,1.44.32,2.85,1,4.38.38h0l.25.18a26.08,26.08,0,0,0,6.14,8.74,6.16,6.16,0,0,0-.41,1.21c-.51,5.69.82,11.26.8,16.94-.14,37.66,0,75.31-.11,113,0,13.32.7,26.66-.83,39.95a5.71,5.71,0,0,1,.22,1.85c-1.2.78-1.4,2.4-2.16,3.52-7.86,11.53-17.93,11.69-25.83.51-1.08-1.54-.89-3.95-2.64-5a6.08,6.08,0,0,0,.22-.76C68.24,375.17,66.85,369.6,66.92,363.93ZM55.63,192.39h-.25a2.23,2.23,0,0,1-.2.3l-.06-.32.26,0a1.14,1.14,0,0,1,.13-.35Z"/><path class="cls-1" d="M422,197.51l-4.78-2.74c-3-.9-5.13-3.92-8.66-3.47a1.19,1.19,0,0,0-.86-.21c-5-1.32-9.46-4.49-14.72-4.73-12.3-.59-24.51-2.34-36.87-2.18-7.47.1-15,.37-22.46-.37-5.33-.53-8.36,2.67-8.25,8,0,1.5.12,3,.12,4.5q0,95.45,0,190.9c0,4.83.16,9.67,0,14.49-.27,7.24.65,8.32,8,8.25,14.32-.13,28.66-.87,43-.29,11.1.46,21.25-3.58,31.94-4.82.45-.06.81-.92,1.21-1.41a1.11,1.11,0,0,0,.73-.2h0c1.9.84,3.26-1.07,5-1L419,400.2c.93-.28,1.74-.66,1.53-1.83l3.64-2.26c1.05-1.23,2.11-2.46,3.16-3.7a1.65,1.65,0,0,0,1.57-.33c3.62-5,6.9-10.22,6.91-16.67q.06-78.6.06-157.22c0-2.95-.55-5.54-2.65-7.67C430.44,205.32,427.24,200.52,422,197.51Zm-24.5,20.9-.15.14v-.16l.09-.07A.47.47,0,0,0,397.46,218.41Zm-4.65-8.93.32.28a3.09,3.09,0,0,0,1.91,3.47c0,.09,0,.18,0,.27a1.41,1.41,0,0,0-.37.42c-1.3,2.7-1,5.56-.59,8.35a79.59,79.59,0,0,1,.66,11.95q0,62.47,0,124.93c0,10.18-.1,20.39-7.54,28.64a1.89,1.89,0,0,0,.11,1.55c-3.31-.82-5.53,1.47-8,2.93-6.43,3.84-10.49,3.68-15.84-.84h.06c3-2.95,2.29-6.8,2.29-10.37q.07-86.32,0-172.65c0-2.16,0-4.32.1-6.49.2-3.51,1.91-4.83,5.27-3.6,6.21,2.26,12.92,3.53,17.47,9a6,6,0,0,0,3.81,2.2l.28-.08ZM362.3,392.33v.05l-.05,0ZM336.37,196.54l-.13,0a1,1,0,0,1,.08-.11Zm74.13,1.85-.19.14v-.14ZM337.28,401.25l0,.08h-.1Zm84.05-13Zm-15,11.06h0Z"/><path class="cls-1" d="M492.16,137.23h0l-1.66,1.24c-.25,1.59-1.47,2.56-2.33,3.76-1,1.44-1.73,3.29-.28,4.53,1.79,1.53,3-.4,4-1.59a17.49,17.49,0,0,0,1.69-2.51,4.92,4.92,0,0,1,.94-.44,43.61,43.61,0,0,0,7.82-9.88l.93.07c.34-1,.68-2,1-3,.43-1.88,2.06-4.36-2-4-1.57,1.49-4.49,1.4-4.9,4.22h0Q494.78,133.45,492.16,137.23Z"/><path class="cls-1" d="M552.25,396.23h0c-10.5,0-21-.09-31.48,0-12.66.09-12.66.14-12.41-12.11,0-.17,0-.34,0-.5q-.09-40.23-.19-80.46c0-5.3,1.47-7.05,6.8-6.5,10.82,1.12,21.65.07,32.45.66,3.2.17,5.47-1,6.9-3.86h0c3.2-3.79,2.71-8.15,1.06-12.14-1.56-3.78-5.46-3-8.76-3-11.78,0-23.56,0-35.33,0h0c-2.23-1.16-3.79-2.85-3.54-5.51,1.33-14.45.32-28.93.57-43.39.14-8.65,0-17.31-.07-26,0-3.05.47-6,4.29-6,12.82-.06,25.64-.22,38.44.27,6.37.25,7.16.17,7.26-6.32h0c.19-8.53-.47-9.12-8.82-8.13a33.12,33.12,0,0,1-4,.1c-12,0-24,0-35.94,0-9.81,0-19.64.2-29.43-.37-7.6-.44-9.62.88-9.62,8.55q0,98.33-.09,196.64c0,5.61,1.17,11.2,0,16.86-.58,2.7.91,4.46,3.92,4.45h0a4.27,4.27,0,0,0,3.34.63c9-1,18-.48,26.92-.44,15.8.05,31.6-.73,47.38.37,5.34.37,7.41-.86,7.56-5.27C559.7,397.27,558.57,395.93,552.25,396.23Zm-47-1.88.06,0s0,0,0,.05Zm.72-94.16c0-.11.05-.22.07-.32l0,.36A.08.08,0,0,0,506,300.19Zm-24.66,102v.11h-.13Zm69.95-110.33.18.07-.14.4C551.26,292.21,551.25,292.05,551.24,291.89ZM480.29,404.33h.4l-.3.25C480.35,404.5,480.33,404.42,480.29,404.33Zm73.94-113h0l0,0Z"/><path class="cls-1" d="M712.5,399.41c-.84-7.69-4.84-14.39-6.83-21.71a2,2,0,0,0-.36-1.46l-4.92-14c-.07-1-.13-1.9-.2-2.85h0c-.05-.66-.11-1.31-.16-2a2.06,2.06,0,0,1-.79-2,2.61,2.61,0,0,0-.92-.1h0a22.58,22.58,0,0,1-1.27-4.29c-.58-6.16-5.36-11.1-5-17.51-2.47-6.64-5.21-13.19-6.78-20.14h0c-.13-1-.25-1.91-.38-2.87a6.29,6.29,0,0,1-1.75-3.88,4.59,4.59,0,0,0-.9-.24c-.51-4.64-3.08-9.3.11-13.92a10.12,10.12,0,0,0,3.94-4h0a3.23,3.23,0,0,0,.91-.2l2.7-4c.89-.36.88-1,.64-1.79a.48.48,0,0,0-.11-.09l2.63-4.18,2.25-5.75h0c1.69-1.33,1.41-3.71,2.74-5.24.77-7.33,4.17-14.28,3.14-21.87h0c0-8.85.63-17.58-2.54-26.31-2.1-5.79-5.21-11-7.57-16.53-2.15-1.15-3-4-5.79-4.32l-.62-.58h0a1.35,1.35,0,0,0-.55-1.2l-1-.62c-3.41-1.1-6-3.86-9.66-4.48a50.56,50.56,0,0,0-16.54-5.13c-17.88-2.32-35.83-2.76-53.82-2.68-6.31,0-7.94,1.8-7.94,8,0,71.12,1,142.23-.46,213.34a3.84,3.84,0,0,0,1.36,3.55c1.15,1.92,3,1.88,4.86,1.67a118.88,118.88,0,0,1,22.4,0c8.13.59,10.6-1.8,9.54-9.68-.39-2.89.22-5.63.17-8.44-.5-27.94,1-55.9-.6-83.84-.27-4.8,3.11-6.65,6.81-8.1a4.42,4.42,0,0,1,6.16,2.62c2.13,5.22,4.54,10.45,5.69,15.92,1.88,9,5.66,17.3,8,26.08h0q7,23.44,14.06,46.87c1.68,5.29,3.94,10.4,4.91,15.91h0c.63,2.52,2.69,2.75,4.7,2.76,9,0,17.94.13,26.9,0,5.26-.11,6.39-2.27,4.18-7A12.58,12.58,0,0,1,712.5,399.41Zm-48.22-181,.05-.05.16,0c-.06.09-.13.18-.18.27,0-.08,0-.16,0-.23Zm-1,44.55.34.17a1.38,1.38,0,0,1-.33.2v.08l0,0,0-.06C663.24,263.23,663.25,263.11,663.24,263Zm-29.3,13.49c.15-2.48.72-4.93.72-7.44q0-28.19,0-56.38c0-2.83-.84-5.62-.43-8.45.77-5.42,3.77-7.11,8.76-4.87,3.8,1.71,7.49,3.6,10.47,6.66,1.24,1.28,2.51,2.73,4.63,2.49a1.92,1.92,0,0,0-.41,1.1c5.8,17.37,7.79,34.92,2.69,52.86a15,15,0,0,0-.62,7.38,2.68,2.68,0,0,0,.37.42h0c-2.66,0-3.37,2.38-4.76,3.93-4.11,4.54-8.69,8.31-15.16,8.64C635.74,283.05,633.66,280.91,633.94,276.48ZM705.1,378.3h0v0Zm-26.79,24.05v0Zm18-136h0v-.08h0l0,.07Z"/><path class="cls-1" d="M719.19,65.49l22.38,7.89.06.05c.47.26.94.49,1.41.72,3.22,2,6.84,3.15,10.43,4.32l.72.34a63.83,63.83,0,0,0,9.9,5.81c.52.3,1,.58,1.6.84s.85.38,1.26.58l6.31,3.79c1.42.93,2.85,1.85,4.35,2.64l.54.32,2.31,2.37L788,99.87l1,.75,1.37,1.1c6,5.67,12.14,11.18,17.82,17.15,16.28,17.15,29.22,36.53,38,58.58.05,1.29.09,2.59.14,3.89l1.81,2.1h0l.27,2.82c.24.2.59.36.72.62,4.32,8.52,6.29,17.74,8,27,0,.32,0,.64.06,1a23.43,23.43,0,0,0,.64,6.1c.38,4.41.77,8.82,1.53,13.16a126.19,126.19,0,0,1-.38,45c-.62,3.41-2.07,6.68-1.74,10.25a1,1,0,0,0-.08.88h0q-.39.12-.75.27c-.18,2.81.22,5.81-.61,8.4-5.09,15.76-9.86,31.69-19.37,45.58-.82,4.31-3.6,7.56-6,11-.79,1.58-1.57,3.16-2.36,4.73-8.56,12.56-19.27,23.23-29.93,33.94-3.56,1.22-5.25,5-8.74,6.36l-4.94,5c-.11.48-.23,1-.34,1.45-.11.16-.2.32-.32.47a8.09,8.09,0,0,0-2.38,2.77c-.07.08-.15.16-.22.25a4,4,0,0,0-.58,1.07,8.73,8.73,0,0,0-3.37,3.79.94.94,0,0,0-.15.76,2.06,2.06,0,0,0-.69.22,1.45,1.45,0,0,0-.77-.28,3.45,3.45,0,0,0-1.7,1.33l-.71-.06-1,1c-.91,1.83-3.67,3.24-2.25,5.59,1.26,2.08,2.85,0,4.24-.59l2-2h0c2.51-2.14,6.25-3,7.06-6.92h0c3.36,0,5.11-2,6.09-4.95,1.89.52,3-.83,4.17-1.88,3.63-3.29,7.21-6.63,10.81-9.94h0c7.69-5.49,13-13.24,19.21-20.15h0a34.24,34.24,0,0,0,7.7-10.06h0a50.34,50.34,0,0,0,8.18-12h0c3.91-5.15,6.16-11.23,9.26-16.84.64-1.15,1.34-2.41-.3-3.41h0l1.14-1.67h0c1.51,0,1.74-1.31,2.26-2.26,3.58-6.47,5.22-13.66,7.58-20.59h0a139.85,139.85,0,0,0,5-20.05h0c1.56-8.11,3.59-16.14,3.83-24.46a237.48,237.48,0,0,0-8.31-68.87c-1-3.49-1-7.63-4.5-10.06h0l-.21-1.79c-.61-8.11-4.7-15-7.81-22.24a49.61,49.61,0,0,0-5-9.84c-1.71-3.82-2.78-8.08-7-10.16h0c-.15-.72-.13-1.51-1-1.86h0c-3.09-7-7.77-12.83-13-18.27h0A11.11,11.11,0,0,0,820.1,121c-8.81-9.21-17.56-18.51-27.58-26.41C785,88.62,777.17,83.08,768.31,79.2c-3-1.64-6-3.32-9.12-4.91-12.77-6.59-25.78-12.58-39.86-15.9h0a188.26,188.26,0,0,0-49-8,280.35,280.35,0,0,0-33.39.79c-17.63,1.45-34.08,6.91-50.66,12.23-7.27,2.73-14.53,5.47-21,9.85h0c-13,5.24-24.38,13-35,22.1h0a177.15,177.15,0,0,0-20.94,21.05c-2.81,1-2.26,4.28-4,6-.05,2.9.24,3,4,2l6-4c0-.41-.09-.82-.13-1.23h0l12.24-12.73,22.13-16.93,8.78-5h0c7.64-3.51,15.37-6.84,22.88-10.59,3-1.52,6.87-1.42,9.19-4.4h0a4.13,4.13,0,0,1,.85-.17h0l12.9-3.43a3.44,3.44,0,0,0,1.29-.34,179.72,179.72,0,0,1,50.68-8.26,8.84,8.84,0,0,0,2.28-.48,5.82,5.82,0,0,0,1-.3c12.7,1.12,25.44,1.8,38,3.92,7.38,1.24,14.29,4.36,21.78,5.07h0Zm70.1,343.92h0Z"/><path class="cls-1" d="M496.45,103.54c-.74,1.58-1.47,3.17-2.21,4.75h0c-1.78,4.42-6.6,6.19-8.89,10.16a28.83,28.83,0,0,0-6.23,5.85l-1,.91h0c-1.94,3-4,6-5.76,9.07a2.85,2.85,0,0,0,.56,3.65,1.76,1.76,0,0,0,2.85-.86c1.1-4,5.36-5.78,6.67-9.6h0a31.06,31.06,0,0,0,5.76-8.14h0c3.57-1.72,4.78-5.94,8.21-7.82a5.39,5.39,0,0,0,3.86-3.06h0a38.73,38.73,0,0,0,9-8.9h0l6.06-5.85h0a85.65,85.65,0,0,0,14.18-11.13h0l15.81-10.88h0c3.37-1.1,6.13-3.23,9-5.19a5.88,5.88,0,0,0,3.94-1.87h0c4.39-1.89,9.09-3.11,13-6,4.06-1.65,8.67-1.94,12.14-5h0l13.8-4.09h0c1.76-.43,3.55-.79,5.29-1.31a169.74,169.74,0,0,1,35.68-6.74c13.53-1,27.08-1.94,40.58.15,6.81,1.06,13.84.48,20.47,2.83l9,1h0L728.25,50h0l14.92,5.51a2.27,2.27,0,0,0,.64.29l21.37,9.79,16.06,8.85a1.05,1.05,0,0,0,.43.29l10.46,7h0l19,14.89h0A322.91,322.91,0,0,1,837,126.53h0a7.53,7.53,0,0,0,3.14,4h0c.84,1.42,1.21,3.23,3.11,3.79h0l1,1.05h0a4.54,4.54,0,0,0,.31,1.42c10.07,16.35,18.37,33.57,23.84,52,3.11,10.5,6.09,21.17,7.59,32a260.43,260.43,0,0,1,2.14,44.33,1.2,1.2,0,0,0-.23.57,3.89,3.89,0,0,0-.5,1.76c.92,10.82-2.74,21-4.36,31.46-1.75,11.21-6,21.7-9.93,32.25a1.07,1.07,0,0,0-.22.75c-1.7,5.37-5.65,9.77-6.77,15.39h0c-3.12,3.53-4.74,8-7,12-5.15,8.93-11.72,16.81-17.88,25h0c-4.56,3.42-7.14,8.57-11,12.68-7,7.56-16,12.79-23.1,20.15a10.49,10.49,0,0,0-5,4.16h0l-1.84,1.13h0c-2,0-3,1.41-4.13,2.68h0l-6.9,4.29h0c-.55.37-1.1.74-1.66,1.1-10.37,6.13-21.7,10.55-31.53,17.66a.62.62,0,0,0-.79.18c-3.52,1.16-4.89,4.47-7,7-1,3.71.28,5.05,4,4,1.52-1.64,3.78-2,5.55-3.07,4.68-2.91,10.44-3.91,14.36-8.12h0c3.44-3.64,8.92-4,12.35-7.68h0c7.91-3.71,15.43-8,21.81-14.07h0c9.23-5.94,17.91-12.55,25.08-21a112.24,112.24,0,0,0,17.9-19.87,128,128,0,0,0,14-19c3.2-4.75,6.59-9.4,8.17-15h0c5.19-7.3,7.82-15.75,10.73-24.07a1.75,1.75,0,0,0,.32-.62c3.54-6.73,4.83-14.16,6.65-21.43,1.8-8.56,4.18-17,5.14-25.74,1.65-15,2.06-30.07-.17-45-1.32-8.77.17-18-3.93-26.31l-6.89-25.94h0c-.46-4.85-3-8.92-5-13.16h0c-1.7-5.06-3.3-10.16-5.93-14.85h0C857,140.75,848.55,129,839.65,117.62c-7.76-9.94-15.71-19.81-26-27.35h0a58.39,58.39,0,0,0-13.28-11.09h0c-5.36-4.15-10.41-8.77-17-11h0c-1.73-1.71-3.5-3.38-6-3.88h0c-9.81-6.19-20.49-10.69-31.11-15.06-5.68-2.34-11.3-5.56-17.72-6h0c-4.44-1.31-8.81-2.91-13.31-3.86-25.23-5.33-50.66-8.76-76.47-5.77-9.52,1.11-19.1,2.22-28.41,4.7-3.36-.09-6.22,1.37-9.07,2.87A49.77,49.77,0,0,0,590.11,44a1.75,1.75,0,0,0-.9.37c-8.4,2.46-16.8,4.93-24.17,9.91h0a84.76,84.76,0,0,0-18,9h0c-7.61,2.69-13.93,7.41-19.83,12.76a74,74,0,0,0-14,11.08h0c-3.77,1.43-5.43,5.44-8.91,7.21l-1,1a1.54,1.54,0,0,0-.32,1.9l-4.61,5.21h0Zm368.82,63.85h0a2.07,2.07,0,0,0-.61-.31,1.13,1.13,0,0,1,.49-.09Zm16.66,68.09v.15a.61.61,0,0,0-.12,0ZM528.24,82.4a1.07,1.07,0,0,1,.16-.14l-.1.14Zm20.09-18.79a.43.43,0,0,0,0-.11l.16,0Zm22.87-7,.12-.1h0v.07Zm307.17,209.9h0v0Zm-202.15-231-.07-.08h.11A.2.2,0,0,0,676.22,35.52Z"/><path class="cls-1" d="M901.16,279.3c-.54-10.94,1.78-21.74.33-32.83-1.73-13.27-2.14-26.66-5-39.87A304.55,304.55,0,0,0,875,142.47c-3-6.45-6.16-13.18-11.66-18.21h0c-.15-.73-.09-1.56-1-1.92h0a49.45,49.45,0,0,0-9.11-13L842.53,96.3h0c-.6-1.84-2.24-2.84-3.43-4.2-8.36-9.58-18.87-16.79-28.06-25.44a9.35,9.35,0,0,1-4-3l-19-12-1.79-.24c-3.25-3.37-8-3.74-11.82-6.06h0a7.15,7.15,0,0,0-4.13-2.12h0c-3.35-1.63-6.28-4.13-10.08-4.81h0c-11.71-4.79-23-10.69-35.89-12h0c-1.4-1.35-3.27-1.49-5-2-24.08-6.39-48.64-7.91-73.41-7-2,.07-4-.29-5.77,1-17.61.42-34.43,4.89-51.14,9.93h0a.65.65,0,0,0-.75.12c-2.27-.24-4.17.93-6.19,1.64-2.83,1-5.62,2.05-8.4,3.14a5.57,5.57,0,0,0-2.58.65c-.75.47-1.52.9-2.29,1.33q-3,1.26-6.06,2.61a281.07,281.07,0,0,0-28.58,14.7c-.91.37-1.83.72-2.78,1-4,1.66-7.17,4.65-10.64,7.15-.52.53-1.07,1-1.62,1.52-.85.64-1.66,1.39-2.85,1.25l-4,3c-.67.72-1.89,1-2.1,2.11l-.14.08c-1.33.84-2.43,2-3.74,2.87l-3,2.93c-5,4.4-10,8.73-13.84,14.23l.08-.11c-1.66,1.9-3.71,3.48-5,5.69-.55.09-.82.78-1.23,1.17l-.93,1c-1.35,2-3.3,3.57-3.76,6.08-3.54,1.35-5,5.24-8.31,6.93l-1.06,1a.89.89,0,0,0-.05,1.19l.12,0-2.8,2.92-1.38,3.52c-.87-.06-1.31.65-1.83,1.22l-2.14,3.09-1,1.92c-1.42,1.14-3.33,2.53-1.74,4.33s3.19-.38,4.68-1.2a2.31,2.31,0,0,0,1.19-2h0c1.36-2,2.72-4,4.07-6h0a8.63,8.63,0,0,0,3.88-4.08h.5l.49,0c1-4.5,4.73-7.24,7.12-10.85h0c7.8-4.75,13.87-11.4,20-17.94a25.18,25.18,0,0,1,3-2.27c2.4-1.9,4.92-3.65,6.77-6.16a21.62,21.62,0,0,1,2.39-2.88l7.75-5.63h0a7.28,7.28,0,0,0,3.9-2.85,1.33,1.33,0,0,0,.19-.14l1.67-.4,2.43-2.66h0l10.82-6.93h0l27-13.07.08,0c13.58-6,27.79-10.11,42.13-13.8a1.07,1.07,0,0,0,.92-.23A40.61,40.61,0,0,0,614,29a169.76,169.76,0,0,1,43-4.66c9.3.24,18.59,0,27.89,1.11a260.1,260.1,0,0,1,56.77,12.8,270,270,0,0,1,53.53,26.43c15.78,10.23,29.51,22.81,42.07,36.73,6.24,7.82,13.06,15.19,18.25,23.82q4.37,6.1,8.75,12.2l-.12.12h0c.12,3.27,2.5,5.44,3.93,8.07h0c1.63,3.42,3.22,6.87,4.91,10.26,3,6.07,4.29,12.89,8,18.65q3.88,13.8,7.76,27.6a3.57,3.57,0,0,0,.39,1.38,4.59,4.59,0,0,0,.24.88l-.16,2c.67,6.88,1.59,13.77,2.68,20.54,1,6.14.09,12.5,2.34,18.44h0c.71,2.88,1.45,5.83.83,8.75-1.42,6.67-1,13.39-.92,20.11a5.79,5.79,0,0,0-.34,1.1c-2.13,7.13-1.68,14.72-3.65,21.87a3.78,3.78,0,0,0-.35,1c-1.4,3.93-1.63,8.12-2.63,12.14h0a7.53,7.53,0,0,1-.95,0c-1.67.63.17,2.26-.87,3.08l-1.23,6.78h0a1.81,1.81,0,0,0-.59,2.25h0c-.9,5.56-4.21,10.3-5.42,15.75h0a108.31,108.31,0,0,0-8,17.14h0l-10,17h0l-7.11,9.82h0L844,394.17h0c-8.42,9.15-16.83,18.32-26.42,26.29-9.9,9.42-21.37,16.77-32.38,24.71l-35.19,18h0l-3.78,1.09h0c-3.56.38-6.53,2.42-9.8,3.61a4.06,4.06,0,0,0-1.22.4c-6.14.53-10.06,4.64-14,8.76-.71.76-2.23,1.51-1.16,2.79.84,1,2.16.37,3.25,0,12.7-4.67,26-7.82,38-14.35a192.11,192.11,0,0,0,36-20h0a6.33,6.33,0,0,0,4-3.1h0c5.72-3.4,11.31-7,16-11.79h0a18.12,18.12,0,0,0,2.85-1.9c9-9,18.08-17.89,27-27,2.73-2.81,4.91-6.16,7.35-9.26a47.46,47.46,0,0,0,7.76-11.05h0c2.93-3.65,6.24-7.07,7.26-11.89h0c1.28-2,2.55-4,3.82-6h0c1.49-.53,1.86-1.73,1.91-3.14h0c5.2-8.8,9.64-17.92,12-27.93h0c4.86-8.75,6.78-18.44,9-28h0l.9-.13c.09-1.37-.35-2.85.89-4,1.06-7,3.37-13.82,3.08-21ZM608.24,29.21a.88.88,0,0,0,0,.15H608Zm132,439.08h0a3.12,3.12,0,0,1-.37.36,2.37,2.37,0,0,0-.09-.36h.45Z"/><polygon class="cls-1" points="663.25 263.35 663.25 263.36 663.25 263.36 663.25 263.35"/><path class="cls-1" d="M291.51,395.18h0c.32-2.13-1-3.78-1.61-5.63-2.53-7.3-5.49-14.51-7.33-22-2.13-8.65-5.61-16.8-8.11-25.29h0c-.61-3-2.9-5.6-2.18-8.93a.87.87,0,0,1,0-.77.76.76,0,0,0-.82-.4c.35-2.89-1.83-5.05-2.26-7.71-2.51-7.2-5.11-14.36-7.51-21.59-1.35-4.06-2-8.16,1.91-11.42h0l4.62-4.5,1.72-2.7c2-2.19,3.76-4.49,3.55-7.69,1.1.15,1.46-.65,1.76-1.54l.72-1.75c1.85-1.58,1.48-4,2.33-6l0,.06a87,87,0,0,0,4.63-33.73c-.41-6.58-1.88-12.78-5.53-18.35h0l-3.15-7.74-2.1-2.43c0-.1-.07-.2-.11-.29a1.65,1.65,0,0,0-.52-.53c.43-.76.51-1.42-.52-1.78-2.44-1.38-3.48-4.57-6.59-5.07l-3.14-2.6c-2.72-.8-4.74-3.18-7.69-3.49-4.14-2.16-8.41-4.1-13.05-4.73-19.33-2.63-38.77-3.26-58.25-3-5.1.06-6.93,2.07-6.92,7q.08,90.14.16,180.27c0,10.48-.05,21-.07,31.46a5.88,5.88,0,0,0-.56,1.93c-.89,4,.55,6,4.63,6.1,9.33.14,18.66.14,28-.05,4.83-.1,6.92-2.8,6.6-7.45-1.14-16.59-.4-33.18,0-49.78.32-13.79,1.14-27.64-.55-41.4-.61-5,.29-8.87,5.09-11.21h0c5.31-1.53,6.57,2.85,8.71,5.95h0c5.24,17.67,11.47,35,16.07,52.91,2.37,6.1,3.57,12.52,5.22,18.82.3.4.61.79.92,1.18h0l.65,1.15h0c.23,1.65,1.51,3.05,1.14,4.84l.12,1.87c.23.09.47.17.7.24a2.5,2.5,0,0,0,.47-.35.83.83,0,0,0,0,.15h0a4.34,4.34,0,0,1-.5.2c.85,6.38,4,12,5.77,18.14a6.43,6.43,0,0,0,.47,1.74h0a1.12,1.12,0,0,0,.82.27h0c1,3.44,3.88,2.38,6.19,2.37,6.64,0,13.27-.3,19.9-.23,2.31,0,4.59.51,6.91-.13,2.86-.79,4.2-2.6,2.45-5.1C292.6,401.61,292.48,398.29,291.51,395.18ZM262.3,291.31l.07-.09,0,.1Zm-52,112.05-.09,0,.08,0v.06Zm-2,4h0l-.17.05s0,0,0-.06h.19a.93.93,0,0,0,.05-.1l.07.08-.12,0Zm6.42-197.64a49.94,49.94,0,0,1,.11-5.47c.61-5.15,3-6.71,7.83-4.89a29.66,29.66,0,0,1,10.54,6.44c1.29,1.26,2.52,2.78,4.56,2.74,0,.11,0,.23-.05.35,2.24,4.84,3.11,10,4.38,15.18,2.64,10.7,2.33,21.29.15,32-1.29,6.31-2.39,12.61-5.51,18.33a1.7,1.7,0,0,0,.42.92h-.07l-2.86,2.78a8.72,8.72,0,0,1-1.12.63c-.82.34-1.58.74-1.79,1.72a4.18,4.18,0,0,1-.25.73,7.91,7.91,0,0,0-.37-1.27c-3.27-.09-5.84,2.2-9,2.61-5.11.67-7.25-1-7.16-6.09C215,254.17,214.64,231.93,214.77,209.69ZM201.31,402.33h0Zm42-65Zm49,67h0a2.43,2.43,0,0,1-.7-.36l.67.26Zm-82-177ZM176.62,407.23v.07h-.09Z"/><polygon class="cls-1" points="663.25 263.36 663.25 263.36 663.25 263.35 663.25 263.36"/></svg>